# xmcd CD database file
#
# Track frame offsets:
#	150
#	18172
#	37871
#	67763
#	90566
#	111322
#	132466
#	144896
#	159761
#	177336
#	199493
#	214623
#	233290
#	254040
#	266942
#	287406
#
# Disc length: 4107 seconds
#
# Revision: 0
# Processed by: cddbd v1.5.2PL0 Copyright (c) Steve Scherf et al.
# Submitted via: CDex 1.76
#
DISCID=d8100910
DTITLE=Ryan Farish - Beautiful
DYEAR=1900
DGENRE=New Age
TTITLE0=Sunshine in The Rain
TTITLE1=Sea Of You
TTITLE2=Chasing The Sun
TTITLE3=Enchanted
TTITLE4=Carried By The Wind
TTITLE5=Indian Summer
TTITLE6=Letting Go
TTITLE7=Full Sail
TTITLE8=Secret Garden
TTITLE9=Atlantica
TTITLE10=Adoration
TTITLE11=Holding Faith
TTITLE12=Everlasting
TTITLE13=Beautiful
TTITLE14=Sea Of You (Reprise)
TTITLE15=Holding Raith (Reprise)
EXTD=
EXTT0=
EXTT1=
EXTT2=
EXTT3=
EXTT4=
EXTT5=
EXTT6=
EXTT7=
EXTT8=
EXTT9=
EXTT10=
EXTT11=
EXTT12=
EXTT13=
EXTT14=
EXTT15=
PLAYORDER=
